<svg width="1920" height="1080" viewBox="0 0 1920 1080" xmlns="http://www.w3.org/2000/svg"><rect width="1920" height="1080" fill="#df6688"/><path d="M 0,1080 C 0,1080 0,180 0,180 C 130.15384615384616,141.82051282051282 260.3076923076923,103.64102564102564 357,120 C 453.6923076923077,136.35897435897436 516.9230769230769,207.25641025641025 607,204 C 697.0769230769231,200.74358974358975 814,123.33333333333331 939,113 C 1064,102.66666666666669 1197.0769230769233,159.41025641025644 1297,182 C 1396.9230769230767,204.58974358974356 1463.6923076923076,193.02564102564102 1562,187 C 1660.3076923076924,180.97435897435898 1790.1538461538462,180.4871794871795 1920,180 C 1920,180 1920,1080 1920,1080 Z" fill="#3d1053" opacity="0.09999999999999999"/><path d="M 0,1080 C 0,1080 0,360 0,360 C 99.87948717948717,376.82564102564106 199.75897435897434,393.65128205128207 316,403 C 432.24102564102566,412.34871794871793 564.8435897435896,414.22051282051285 665,391 C 765.1564102564104,367.77948717948715 832.8666666666668,319.4666666666667 949,306 C 1065.1333333333332,292.5333333333333 1229.6897435897436,313.91282051282053 1329,344 C 1428.3102564102564,374.08717948717947 1462.374358974359,412.88205128205124 1550,417 C 1637.625641025641,421.11794871794876 1778.8128205128205,390.5589743589744 1920,360 C 1920,360 1920,1080 1920,1080 Z" fill="#3d1053" opacity="0.19999999999999998"/><path d="M 0,1080 C 0,1080 0,540 0,540 C 102.80512820512823,531.1794871794872 205.61025641025645,522.3589743589744 307,521 C 408.38974358974355,519.6410256410256 508.3641025641025,525.7435897435898 631,546 C 753.6358974358975,566.2564102564102 898.9333333333336,600.6666666666666 1009,603 C 1119.0666666666664,605.3333333333334 1193.902564102564,575.5897435897436 1292,555 C 1390.097435897436,534.4102564102564 1511.4564102564104,522.974358974359 1620,522 C 1728.5435897435896,521.025641025641 1824.2717948717948,530.5128205128206 1920,540 C 1920,540 1920,1080 1920,1080 Z" fill="#3d1053" opacity="0.3"/><path d="M 0,1080 C 0,1080 0,720 0,720 C 84.96923076923076,693.7846153846153 169.93846153846152,667.5692307692308 266,665 C 362.0615384615385,662.4307692307692 469.2153846153848,683.5076923076923 601,709 C 732.7846153846152,734.4923076923077 889.2,764.3999999999999 1017,755 C 1144.8,745.6000000000001 1243.9846153846154,696.8923076923077 1322,671 C 1400.0153846153846,645.1076923076923 1456.8615384615384,642.0307692307694 1553,654 C 1649.1384615384616,665.9692307692306 1784.5692307692307,692.9846153846154 1920,720 C 1920,720 1920,1080 1920,1080 Z" fill="#3d1053" opacity="0.39999999999999997"/><path d="M 0,1080 C 0,1080 0,900 0,900 C 93.30512820512817,866.9641025641026 186.61025641025634,833.9282051282051 310,850 C 433.38974358974366,866.0717948717949 586.8641025641026,931.251282051282 689,948 C 791.1358974358974,964.748717948718 841.9333333333334,933.0666666666665 949,929 C 1056.0666666666666,924.9333333333335 1219.402564102564,948.4820512820514 1321,941 C 1422.597435897436,933.5179487179486 1462.4564102564104,895.0051282051281 1552,883 C 1641.5435897435896,870.9948717948719 1780.7717948717948,885.4974358974359 1920,900 C 1920,900 1920,1080 1920,1080 Z" fill="#3d1053" opacity="0.49999999999999994"/></svg>